<mxfile host="app.diagrams.net" modified="2020-09-18T13:17:37.673Z" agent="5.0 (Windows NT 10.0; Win64; x64) AppleWebKit/537.36 (KHTML, like Gecko) Chrome/85.0.4183.102 Safari/537.36" etag="kvyi6wx68TM7KMHZmjlA" version="13.7.3" type="github">
  <diagram name="Page-1" id="e7e014a7-5840-1c2e-5031-d8a46d1fe8dd">
    <mxGraphModel dx="1038" dy="548" grid="1" gridSize="10" guides="1" tooltips="1" connect="1" arrows="1" fold="1" page="1" pageScale="1" pageWidth="1169" pageHeight="826" background="#ffffff" math="0" shadow="0">
      <root>
        <mxCell id="0" />
        <mxCell id="1" parent="0" />
        <mxCell id="2" value="Obcjets" style="swimlane;whiteSpace=wrap" parent="1" vertex="1">
          <mxGeometry x="60" y="10" width="960" height="670" as="geometry" />
        </mxCell>
        <mxCell id="b4L1eVKrCasmwDzjQs01-42" value="&lt;p style=&quot;margin: 0px ; margin-top: 4px ; text-align: center ; text-decoration: underline&quot;&gt;&lt;b&gt;server: Server&lt;/b&gt;&lt;/p&gt;&lt;hr&gt;&lt;p style=&quot;margin: 0px ; margin-left: 8px&quot;&gt;&lt;br&gt;&lt;/p&gt;" style="verticalAlign=top;align=left;overflow=fill;fontSize=12;fontFamily=Helvetica;html=1;" vertex="1" parent="2">
          <mxGeometry x="600" y="90" width="200" height="50" as="geometry" />
        </mxCell>
        <mxCell id="b4L1eVKrCasmwDzjQs01-45" value="&lt;p style=&quot;margin: 0px ; margin-top: 4px ; text-align: center ; text-decoration: underline&quot;&gt;&lt;b&gt;klient: Klient&lt;/b&gt;&lt;/p&gt;&lt;hr&gt;&lt;p style=&quot;margin: 0px ; margin-left: 8px&quot;&gt;userId = 1&lt;br&gt;userName = &quot;aniaBien&quot;&lt;br&gt;userPwd = &quot;Wiktoria&quot;&lt;/p&gt;" style="verticalAlign=top;align=left;overflow=fill;fontSize=12;fontFamily=Helvetica;html=1;" vertex="1" parent="2">
          <mxGeometry x="80" y="80" width="200" height="80" as="geometry" />
        </mxCell>
        <mxCell id="b4L1eVKrCasmwDzjQs01-46" value="&lt;p style=&quot;margin: 0px ; margin-top: 4px ; text-align: center ; text-decoration: underline&quot;&gt;&lt;b&gt;wyszukiwanieProduktu: WyszukiwanieProduktu&lt;/b&gt;&lt;/p&gt;&lt;hr&gt;&lt;p style=&quot;margin: 0px ; margin-left: 8px&quot;&gt;nazwaProduktu =&amp;nbsp; &quot;Banan&quot;&lt;br&gt;&lt;br&gt;&lt;/p&gt;" style="verticalAlign=top;align=left;overflow=fill;fontSize=12;fontFamily=Helvetica;html=1;" vertex="1" parent="2">
          <mxGeometry x="40" y="230" width="310" height="47" as="geometry" />
        </mxCell>
        <mxCell id="b4L1eVKrCasmwDzjQs01-47" value="&lt;p style=&quot;margin: 0px ; margin-top: 4px ; text-align: center ; text-decoration: underline&quot;&gt;&lt;b&gt;wyszukiwaniePrzepisu: WyszukiwaniePrzepisu&lt;/b&gt;&lt;/p&gt;&lt;hr&gt;&lt;p style=&quot;margin: 0px ; margin-left: 8px&quot;&gt;nazwaPrzepisu =&amp;nbsp; &quot;Omlet na slodko&quot;&lt;br&gt;&lt;br&gt;&lt;/p&gt;" style="verticalAlign=top;align=left;overflow=fill;fontSize=12;fontFamily=Helvetica;html=1;" vertex="1" parent="2">
          <mxGeometry x="570" y="190" width="310" height="47" as="geometry" />
        </mxCell>
        <mxCell id="b4L1eVKrCasmwDzjQs01-48" value="&lt;p style=&quot;margin: 0px ; margin-top: 4px ; text-align: center ; text-decoration: underline&quot;&gt;&lt;b&gt;dodawanieProduktu: DodawanieProduktu&lt;/b&gt;&lt;/p&gt;&lt;hr&gt;&lt;p style=&quot;margin: 0px ; margin-left: 8px&quot;&gt;nazwaProduktu =&amp;nbsp; &quot;Jablko&quot;&lt;/p&gt;&amp;nbsp; glownySkladnik =&amp;nbsp;&lt;span&gt;&quot;Weglowodany&quot;&lt;/span&gt;&lt;br&gt;&amp;nbsp; kalorieW100Gramach&amp;nbsp;&lt;span&gt;=&amp;nbsp; 57.0&lt;br&gt;&lt;/span&gt;&lt;p style=&quot;margin: 0px ; margin-left: 8px&quot;&gt;&lt;br&gt;&lt;/p&gt;" style="verticalAlign=top;align=left;overflow=fill;fontSize=12;fontFamily=Helvetica;html=1;" vertex="1" parent="2">
          <mxGeometry x="60" y="340" width="310" height="80" as="geometry" />
        </mxCell>
        <mxCell id="b4L1eVKrCasmwDzjQs01-49" value="&lt;p style=&quot;margin: 0px ; margin-top: 4px ; text-align: center ; text-decoration: underline&quot;&gt;&lt;b&gt;produkt: Product&lt;/b&gt;&lt;/p&gt;&lt;hr&gt;&lt;p style=&quot;margin: 0px ; margin-left: 8px&quot;&gt;porductId = 3&lt;/p&gt;&lt;p style=&quot;margin: 0px ; margin-left: 8px&quot;&gt;nazwaProduktu =&amp;nbsp; &quot;Jablko&quot;&lt;/p&gt;&amp;nbsp; glownySkladnik =&amp;nbsp;&lt;span&gt;&quot;Weglowodany&quot;&lt;/span&gt;&lt;br&gt;&amp;nbsp; kalorieW100Gramach&amp;nbsp;&lt;span&gt;=&amp;nbsp; 57.0&lt;br&gt;&amp;nbsp;&amp;nbsp;&lt;br&gt;&lt;/span&gt;&lt;p style=&quot;margin: 0px ; margin-left: 8px&quot;&gt;&lt;br&gt;&lt;/p&gt;" style="verticalAlign=top;align=left;overflow=fill;fontSize=12;fontFamily=Helvetica;html=1;" vertex="1" parent="2">
          <mxGeometry x="40" y="490" width="310" height="90" as="geometry" />
        </mxCell>
        <mxCell id="b4L1eVKrCasmwDzjQs01-50" value="&lt;p style=&quot;margin: 0px ; margin-top: 4px ; text-align: center ; text-decoration: underline&quot;&gt;&lt;b&gt;dodawaniePrzepisu: DodawaniePrzepisu&lt;/b&gt;&lt;/p&gt;&lt;hr&gt;&lt;p style=&quot;margin: 0px ; margin-left: 8px&quot;&gt;nazwaPrzepisu =&amp;nbsp; &quot;Jogurt z borowkami i migdalami&quot;&lt;/p&gt;&lt;p style=&quot;margin: 0px ; margin-left: 8px&quot;&gt;posilek = &quot;drugie sniadanie&quot;&lt;/p&gt;&amp;nbsp; &amp;nbsp;instrukcje = &quot;&lt;span&gt;W wysokiej szklance ukladaj warstwami poszczegolne skladniki.&amp;nbsp;&lt;br&gt;&lt;/span&gt;&lt;span&gt;&amp;nbsp; &amp;nbsp; &amp;nbsp; &amp;nbsp; &amp;nbsp; &amp;nbsp; &amp;nbsp; &amp;nbsp; &amp;nbsp; &amp;nbsp; &amp;nbsp; &amp;nbsp;Na dnie uloz warstwÄ™ borowek.&amp;nbsp;&lt;/span&gt;&lt;span&gt;Nastepnie dodaj 1/2 porcji jogurtu,&amp;nbsp;&lt;br&gt;&lt;/span&gt;&lt;span&gt;&amp;nbsp; &amp;nbsp; &amp;nbsp; &amp;nbsp; &amp;nbsp; &amp;nbsp; &amp;nbsp; &amp;nbsp; &amp;nbsp; &amp;nbsp; &amp;nbsp; &amp;nbsp;migdaly,&amp;nbsp;&lt;/span&gt;&lt;span&gt;pokrojone banany oraz&amp;nbsp;&lt;/span&gt;&lt;span&gt;druga czesc jogurtu.&quot;&lt;/span&gt;&lt;span&gt;&lt;br&gt;&amp;nbsp;&amp;nbsp;&lt;/span&gt;produkty = &quot;jogurt naturalny; borowki; migdaly; banan&quot;&lt;span&gt;&lt;br&gt;&lt;/span&gt;&lt;p style=&quot;margin: 0px ; margin-left: 8px&quot;&gt;&lt;br&gt;&lt;/p&gt;" style="verticalAlign=top;align=left;overflow=fill;fontSize=12;fontFamily=Helvetica;html=1;" vertex="1" parent="2">
          <mxGeometry x="500" y="290" width="450" height="130" as="geometry" />
        </mxCell>
        <mxCell id="b4L1eVKrCasmwDzjQs01-51" value="&lt;p style=&quot;margin: 0px ; margin-top: 4px ; text-align: center ; text-decoration: underline&quot;&gt;&lt;b&gt;przepis: Przepis&lt;/b&gt;&lt;/p&gt;&lt;hr&gt;&lt;p style=&quot;margin: 0px ; margin-left: 8px&quot;&gt;recipeId = 13&lt;/p&gt;&lt;p style=&quot;margin: 0px ; margin-left: 8px&quot;&gt;nazwaPrzepisu =&amp;nbsp; &quot;Salatka z warzywami i jajkiem&quot;&lt;/p&gt;&lt;p style=&quot;margin: 0px ; margin-left: 8px&quot;&gt;posilek = &quot;lunch&quot;&lt;/p&gt;&amp;nbsp; &amp;nbsp;instrukcje = &quot;&lt;span&gt;Wszystkie warzywa umyj i pokroj na nieduze kawalki.&amp;nbsp;&lt;/span&gt;&lt;span&gt;Jajko &lt;br&gt;&amp;nbsp; &amp;nbsp; &amp;nbsp; &amp;nbsp; &amp;nbsp; &amp;nbsp; &amp;nbsp; &amp;nbsp; &amp;nbsp; &amp;nbsp; &amp;nbsp; &amp;nbsp;ugotuj na twardo, a po wystudzeniu pokroj w kosteczke.&amp;nbsp;&lt;/span&gt;&lt;span&gt;Wszystkie &lt;br&gt;&amp;nbsp; &amp;nbsp; &amp;nbsp; &amp;nbsp; &amp;nbsp; &amp;nbsp; &amp;nbsp; &amp;nbsp; &amp;nbsp; &amp;nbsp; &amp;nbsp; &amp;nbsp;skladniki przeloz do miseczki, wymieszaj, dodaj oliwe z oliwek &lt;br&gt;&amp;nbsp; &amp;nbsp; &amp;nbsp; &amp;nbsp; &amp;nbsp; &amp;nbsp; &amp;nbsp; &amp;nbsp; &amp;nbsp; &amp;nbsp; &amp;nbsp; &amp;nbsp;i przypraw do smaku.&lt;/span&gt;&lt;span&gt;&quot;&lt;/span&gt;&lt;span&gt;&lt;br&gt;&amp;nbsp;&amp;nbsp;&lt;/span&gt;produkty = &quot;&lt;span&gt;salata;&amp;nbsp;&lt;/span&gt;&lt;span&gt;pomidor;&amp;nbsp;&lt;/span&gt;&lt;span&gt;papryka; o&lt;/span&gt;&lt;span&gt;liwa;&amp;nbsp;&lt;/span&gt;&lt;span&gt;jajko; cebula&quot;&lt;/span&gt;&lt;span&gt;&lt;br&gt;&lt;/span&gt;&lt;p style=&quot;margin: 0px ; margin-left: 8px&quot;&gt;&lt;br&gt;&lt;/p&gt;" style="verticalAlign=top;align=left;overflow=fill;fontSize=12;fontFamily=Helvetica;html=1;" vertex="1" parent="2">
          <mxGeometry x="470" y="470" width="440" height="150" as="geometry" />
        </mxCell>
        <mxCell id="b4L1eVKrCasmwDzjQs01-52" value="" style="endArrow=none;html=1;edgeStyle=orthogonalEdgeStyle;entryX=0.455;entryY=0.993;entryDx=0;entryDy=0;entryPerimeter=0;" edge="1" parent="2" target="b4L1eVKrCasmwDzjQs01-48">
          <mxGeometry relative="1" as="geometry">
            <mxPoint x="200" y="490" as="sourcePoint" />
            <mxPoint x="360" y="490" as="targetPoint" />
            <Array as="points">
              <mxPoint x="200" y="480" />
              <mxPoint x="230" y="480" />
              <mxPoint x="230" y="450" />
              <mxPoint x="201" y="450" />
            </Array>
          </mxGeometry>
        </mxCell>
        <mxCell id="b4L1eVKrCasmwDzjQs01-58" value="" style="endArrow=none;html=1;edgeStyle=orthogonalEdgeStyle;entryX=0.358;entryY=0.992;entryDx=0;entryDy=0;entryPerimeter=0;exitX=0.363;exitY=0.03;exitDx=0;exitDy=0;exitPerimeter=0;" edge="1" parent="2" source="b4L1eVKrCasmwDzjQs01-46" target="b4L1eVKrCasmwDzjQs01-45">
          <mxGeometry relative="1" as="geometry">
            <mxPoint x="152" y="220" as="sourcePoint" />
            <mxPoint x="221.04999999999995" y="439.44000000000005" as="targetPoint" />
          </mxGeometry>
        </mxCell>
        <mxCell id="b4L1eVKrCasmwDzjQs01-55" value="" style="endArrow=none;html=1;edgeStyle=orthogonalEdgeStyle;entryX=0.69;entryY=1.002;entryDx=0;entryDy=0;entryPerimeter=0;exitX=1;exitY=0.75;exitDx=0;exitDy=0;" edge="1" parent="2" source="b4L1eVKrCasmwDzjQs01-48" target="b4L1eVKrCasmwDzjQs01-45">
          <mxGeometry relative="1" as="geometry">
            <mxPoint x="195" y="340" as="sourcePoint" />
            <mxPoint x="211.04999999999995" y="429.44000000000005" as="targetPoint" />
            <Array as="points">
              <mxPoint x="400" y="400" />
              <mxPoint x="400" y="200" />
              <mxPoint x="218" y="200" />
            </Array>
          </mxGeometry>
        </mxCell>
        <mxCell id="b4L1eVKrCasmwDzjQs01-61" value="" style="endArrow=none;html=1;edgeStyle=orthogonalEdgeStyle;entryX=0;entryY=0.5;entryDx=0;entryDy=0;exitX=0;exitY=0.5;exitDx=0;exitDy=0;" edge="1" parent="2" source="b4L1eVKrCasmwDzjQs01-49" target="b4L1eVKrCasmwDzjQs01-46">
          <mxGeometry relative="1" as="geometry">
            <mxPoint x="230" y="520" as="sourcePoint" />
            <mxPoint x="231.04999999999995" y="449.44000000000005" as="targetPoint" />
            <Array as="points">
              <mxPoint x="10" y="535" />
              <mxPoint x="10" y="384" />
              <mxPoint x="30" y="384" />
              <mxPoint x="30" y="254" />
            </Array>
          </mxGeometry>
        </mxCell>
        <mxCell id="b4L1eVKrCasmwDzjQs01-65" value="" style="endArrow=none;html=1;edgeStyle=orthogonalEdgeStyle;entryX=0.966;entryY=1.013;entryDx=0;entryDy=0;entryPerimeter=0;exitX=0.452;exitY=-0.038;exitDx=0;exitDy=0;exitPerimeter=0;" edge="1" parent="2" source="b4L1eVKrCasmwDzjQs01-47" target="b4L1eVKrCasmwDzjQs01-45">
          <mxGeometry relative="1" as="geometry">
            <mxPoint x="162.52999999999997" y="241.40999999999997" as="sourcePoint" />
            <mxPoint x="161.5999999999999" y="169.36" as="targetPoint" />
            <Array as="points">
              <mxPoint x="710" y="170" />
              <mxPoint x="273" y="170" />
            </Array>
          </mxGeometry>
        </mxCell>
        <mxCell id="b4L1eVKrCasmwDzjQs01-66" value="" style="endArrow=none;html=1;edgeStyle=orthogonalEdgeStyle;entryX=0.83;entryY=1.003;entryDx=0;entryDy=0;entryPerimeter=0;exitX=0.5;exitY=0;exitDx=0;exitDy=0;" edge="1" parent="2" source="b4L1eVKrCasmwDzjQs01-50" target="b4L1eVKrCasmwDzjQs01-45">
          <mxGeometry relative="1" as="geometry">
            <mxPoint x="720.1199999999999" y="198.21400000000006" as="sourcePoint" />
            <mxPoint x="283.20000000000005" y="171.03999999999996" as="targetPoint" />
            <Array as="points">
              <mxPoint x="720" y="290" />
              <mxPoint x="720" y="250" />
              <mxPoint x="480" y="250" />
              <mxPoint x="480" y="190" />
              <mxPoint x="246" y="190" />
            </Array>
          </mxGeometry>
        </mxCell>
        <mxCell id="b4L1eVKrCasmwDzjQs01-67" value="name" style="endArrow=block;endFill=1;html=1;edgeStyle=orthogonalEdgeStyle;align=left;verticalAlign=top;entryX=0;entryY=0.5;entryDx=0;entryDy=0;exitX=1.022;exitY=0.423;exitDx=0;exitDy=0;exitPerimeter=0;" edge="1" parent="2" source="b4L1eVKrCasmwDzjQs01-45" target="b4L1eVKrCasmwDzjQs01-42">
          <mxGeometry x="-1" relative="1" as="geometry">
            <mxPoint x="390" y="330" as="sourcePoint" />
            <mxPoint x="550" y="330" as="targetPoint" />
          </mxGeometry>
        </mxCell>
        <mxCell id="b4L1eVKrCasmwDzjQs01-68" value="1" style="edgeLabel;resizable=0;html=1;align=left;verticalAlign=bottom;" connectable="0" vertex="1" parent="b4L1eVKrCasmwDzjQs01-67">
          <mxGeometry x="-1" relative="1" as="geometry" />
        </mxCell>
      </root>
    </mxGraphModel>
  </diagram>
</mxfile>
